<?xml version="1.0" encoding="UTF-8" standalone="no"?>
<svg width="63px" height="70px" viewBox="0 0 63 70" version="1.1" xmlns="http://www.w3.org/2000/svg" xmlns:xlink="http://www.w3.org/1999/xlink" xmlns:sketch="http://www.bohemiancoding.com/sketch/ns">
    <!-- Generator: Sketch 3.2.2 (9983) - http://www.bohemiancoding.com/sketch -->
    <title>Fruit of Life 2</title>
    <desc>Created with Sketch.</desc>
    <defs></defs>
    <g id="Page-1" stroke="none" stroke-width="1" fill="none" fill-rule="evenodd" sketch:type="MSPage">
        <g id="Grat-Widge-Scrolled" sketch:type="MSArtboardGroup" transform="translate(-606.000000, -91.000000)">
            <g id="Widget" sketch:type="MSLayerGroup" transform="translate(479.000000, 75.000000)">
                <g id="Fruit-of-Life-2" transform="translate(127.000000, 16.000000)" sketch:type="MSShapeGroup">
                    <path d="M29.8638455,55.2865947 C27.4020382,54.8371622 25.0564573,52.529315 24.5997296,50.1070482 C23.7167077,46.3778001 26.0735428,42.6501712 29.8638455,41.781462 L29.8638455,55.2865947 M33.0614201,55.2865947 C36.851824,54.4177858 39.2086085,50.6902566 38.3256245,46.961021 C37.8689855,44.538642 35.5233287,42.2306951 33.0614201,41.781462 L33.0614201,55.2865947" id="Fill-1" fill="#098B59"></path>
                    <path d="M29.8638455,59.9789675 C29.8710487,60.106117 29.8157396,60.3092472 29.74491,60.4159192 C29.4996205,60.8340002 28.9563781,60.9771181 28.5315776,60.7358231 L25.3600436,58.9340825 C26.1313206,57.4214176 28.1687325,55.9350968 29.8638455,55.6482756 L29.8638455,59.9789675 M32.5196083,65.4358314 C31.935881,65.8065677 30.9938787,65.8065677 30.4101767,65.4358314 L24.4256622,62.0362152 C24.2210348,65.8601777 27.2056901,69.1233523 31.092154,69.3247387 C34.9785545,69.5261127 38.2949887,66.5893191 38.499654,62.7654936 C38.5126553,62.5807109 38.5126553,62.2233646 38.4997806,62.0387189 L32.5196083,65.4358314 M33.9496577,60.8528584 C34.0789993,60.859896 34.285399,60.8055261 34.3937512,60.7358231 L37.5653739,58.9340825 C36.7940716,57.4214176 34.7566217,55.9350968 33.0614201,55.6482756 L33.0614201,59.9789675 C33.0614201,60.4616322 33.4591294,60.8528584 33.9496577,60.8528584" id="Fill-2" fill="#079F7C"></path>
                    <path d="M7.05207331,47.5816468 L7.05207331,41.6005779 C8.0777926,41.5449002 9.7153811,41.9766952 10.5754388,42.5294739 C13.9458402,44.4441643 15.1006352,48.6845512 13.1547132,52.0006881 L7.89026817,49.0101973 C7.39898022,48.7623007 7.02461496,48.1241993 7.05207331,47.5816468 L7.05207331,47.5816468 Z M3.85446077,49.154623 L3.85446077,42.3554904 C0.386404398,44.0930709 -0.993412374,48.2678901 0.772555606,51.6800991 C2.53852359,55.0924701 6.78151554,56.4500346 10.2496352,54.7124541 C10.4186769,54.6311298 10.7332009,54.4526248 10.8893552,54.3493034 L4.90922084,50.9521411 C4.29098393,50.6402089 3.81997643,49.8373787 3.85446077,49.154623 L3.85446077,49.154623 Z" id="Fill-3" fill="#098B59"></path>
                    <path d="M36.9251222,29.7478898 C36.0897125,27.4254941 36.9482511,24.2729027 38.8518906,22.6724239 C41.6929117,20.0553474 46.1522537,20.1998852 48.8121561,22.995255 L36.9251222,29.7478898 L36.9251222,29.7478898 Z M38.5238969,32.4725103 C41.1836727,35.2677679 45.6430399,35.4124054 48.4840484,32.7953413 C50.3877132,31.1948875 51.2462898,28.0422586 50.4109307,25.7198629 L38.5238969,32.4725103 L38.5238969,32.4725103 Z" id="Fill-4" fill="#098B59"></path>
                    <path d="M55.8788131,47.5816468 L55.8788131,41.6005779 C51.9797024,41.6005779 48.8293476,44.7047534 48.8293476,48.5339972 C48.7726586,49.5432584 49.2101565,51.1544991 49.7720082,52.0006881 L55.0384408,49.0101973 C55.5298173,48.7623007 55.904132,48.1241993 55.8788131,47.5816468" id="Fill-5" fill="#088F45"></path>
                    <path d="M59.710664,42.7294528 C59.5545097,42.6260193 59.2462268,42.4473898 59.0689945,42.3659658 L59.0689945,49.1601161 C59.1069728,49.8429839 58.6344715,50.6457144 58.0162979,50.9577463 L52.0328594,54.3572627 C55.2962378,56.4435326 59.6602668,55.5319005 61.7806994,52.321028 C63.9011699,49.1100684 62.9741184,44.8158597 59.710664,42.7294528" id="Fill-6" fill="#088F45"></path>
                    <path d="M12.5144362,25.7198629 L24.4014826,32.4725103 C22.7750218,34.3455483 19.5708264,35.1903298 17.2104972,34.3682927 C13.486492,33.2560214 11.3839852,29.3839669 12.5144362,25.7198629 M14.1132867,22.995255 L26.0002699,29.7478898 C27.1307208,26.0837984 25.0282647,22.2117562 21.3042849,21.0994726 C18.9438797,20.2775475 15.7396843,21.1222294 14.1132867,22.995255" id="Fill-7" fill="#69B64A"></path>
                    <path d="M7.05207331,24.1305197 C7.0448954,24.0033329 7.10020454,23.8003646 7.17107214,23.693568 C7.41629835,23.2755866 7.95955334,23.1324687 8.38435385,23.3737513 L12.1962029,25.539091 C11.0961726,26.8402554 8.76920113,27.8330126 7.05207331,27.7338888 L7.05207331,24.1305197 M3.85227069,26.9778678 L3.85227069,20.1836179 C3.817799,19.5008497 4.28879385,18.6981191 4.90698012,18.3861745 L10.8915073,14.9865708 C7.62804032,12.9001764 3.2635303,13.8118335 1.14308505,17.0228055 C-0.977284234,20.2337527 -0.0507897141,24.5279863 3.21260133,26.6143808 C3.36875565,26.7178143 3.68316575,26.8964438 3.85227069,26.9778678 M13.1547132,17.3337537 L9.98317911,19.1353947 C9.55832796,19.3766772 9.41282024,19.9112455 9.65804645,20.3292144 C9.71653311,20.4428991 9.86763631,20.5915598 9.98317911,20.6490187 L13.7949269,22.814483 C14.3901363,21.2265473 14.1005134,18.7474194 13.1547132,17.3337537" id="Fill-8" fill="#4D8561"></path>
                    <path d="M58.0161587,18.3822883 L52.035961,14.985263 C52.1921153,14.8818419 52.5065887,14.7033245 52.6757316,14.6218881 C56.1438133,12.8843201 60.3868179,14.2421088 62.1528492,17.6543303 C63.9187919,21.0666763 62.5389878,25.2414955 59.0708554,26.979076 L59.0708554,20.1799434 C59.1053524,19.4970631 58.6343323,18.6943575 58.0161587,18.3822883 L58.0161587,18.3822883 Z M49.7706537,17.3337537 C48.8248282,18.7474194 48.5352306,21.2265473 49.1303893,22.814483 L52.9421877,20.6490187 C53.3669882,20.4077362 53.5126226,19.87328 53.2672951,19.4553235 C53.2088084,19.3415143 53.0578065,19.1928909 52.9421877,19.1353947 L49.7706537,17.3337537 L49.7706537,17.3337537 Z M55.8733568,27.7338888 L55.8733568,24.1305197 C55.8733568,23.6479422 55.4756475,23.2566039 54.9850559,23.2566039 C54.8558155,23.2497158 54.6494159,23.3040607 54.5409117,23.3737513 L50.7291893,25.539091 C51.8292195,26.8402554 54.1562037,27.8330126 55.8733568,27.7338888 L55.8733568,27.7338888 Z" id="Fill-9" fill="#69B64A"></path>
                    <path d="M32.3010049,7.40985604 L37.5653739,10.4002597 C36.7940716,11.9130243 34.7566217,13.3994821 33.0614201,13.6862908 C33.0614201,13.6862908 32.3701634,13.8688938 31.4626961,13.8688938 C30.5594317,13.8688938 29.8638455,13.6862908 29.8638455,13.6862908 C28.1687325,13.3994821 26.1313206,11.9130243 25.3600436,10.4002597 L30.6244253,7.40985604 C31.0883308,7.11517523 31.8370234,7.11517523 32.3010049,7.40985604 L32.3010049,7.40985604 Z M32.5152028,3.89871011 L38.499654,7.2982266 C38.7043447,3.47427657 35.7196767,0.211226529 31.8332888,0.00982767612 C27.9468376,-0.191658368 24.6303275,2.74512279 24.4256622,6.56896071 C24.4127116,6.75373099 24.4126609,7.11107725 24.4255989,7.29574788 L30.40567,3.89871011 C30.9894225,3.52788661 31.9315008,3.52788661 32.5152028,3.89871011 L32.5152028,3.89871011 Z" id="Fill-10" fill="#098B59"></path>
                    <path d="M33.0614201,36.7736942 C33.0270117,36.0909385 33.4979939,35.2883699 34.1162941,34.9764377 L38.2055876,32.6533943 C38.2409075,32.763417 38.300217,32.9815191 38.3256245,33.0941201 C39.2086085,36.823443 36.851824,40.5509472 33.0614201,41.4197811 L33.0614201,36.7736942 L33.0614201,36.7736942 Z M36.6067624,29.9286618 C33.9469233,27.1334041 29.487632,26.9888787 26.6466361,29.6059553 C26.5601341,29.683929 26.3978273,29.8435758 26.3185791,29.9286618 L30.4079234,32.2516055 C30.9916759,32.622429 31.9336783,32.622429 32.5174055,32.2516055 L36.6067624,29.9286618 L36.6067624,29.9286618 Z M24.7197792,32.6533943 C23.589265,36.3173488 25.6917718,40.1892912 29.4158276,41.3016746 C29.5276991,41.336414 29.7493661,41.3947697 29.8638455,41.4197811 L29.8638455,36.7736942 C29.8983931,36.0909385 29.4273223,35.2883699 28.8091361,34.9764377 L24.7197792,32.6533943 L24.7197792,32.6533943 Z" id="Fill-11" fill="#185F33"></path>
                    <path d="M26.3040967,41.6005779 L26.3040967,41.6005779 C26.3040967,45.4297968 23.1491719,48.5339972 19.2573657,48.5339972 C15.3655342,48.5339972 12.210622,45.4297968 12.210622,41.6005779 C12.210622,37.7713342 15.3655342,34.6672957 19.2573657,34.6672957 C23.1491719,34.6672957 26.3040967,37.7713342 26.3040967,41.6005779" id="Fill-12" fill="#079F7C"></path>
                    <path d="M50.7147195,41.6005779 C50.7147195,37.7713342 47.559782,34.6672957 43.6679758,34.6672957 C39.7761443,34.6672957 36.6212448,37.7713342 36.6212448,41.6005779 C36.6212448,45.4297968 39.7761443,48.5339972 43.6679758,48.5339972 C47.559782,48.5339972 50.7147195,45.4297968 50.7147195,41.6005779" id="Fill-13" fill="#69B64A"></path>
                    <path d="M38.5094271,20.800482 C38.5094271,16.9712383 35.3545275,13.8670628 31.4626961,13.8670628 C27.5708773,13.8670628 24.4159651,16.9712383 24.4159651,20.800482 C24.4159651,24.6297133 27.5708773,27.7338888 31.4626961,27.7338888 C35.3545275,27.7338888 38.5094271,24.6297133 38.5094271,20.800482" id="Fill-14" fill="#079F7C"></path>
                </g>
            </g>
        </g>
    </g>
</svg>