<?xml version="1.0" encoding="UTF-8" standalone="no"?>
<svg width="38px" height="37px" viewBox="0 0 38 37" version="1.1" xmlns="http://www.w3.org/2000/svg" xmlns:xlink="http://www.w3.org/1999/xlink" xmlns:sketch="http://www.bohemiancoding.com/sketch/ns">
    <!-- Generator: Sketch 3.2.2 (9983) - http://www.bohemiancoding.com/sketch -->
    <title>Imported Layers</title>
    <desc>Created with Sketch.</desc>
    <defs></defs>
    <g id="Page-1" stroke="none" stroke-width="1" fill="none" fill-rule="evenodd" sketch:type="MSPage">
        <g id="Grat-Widge" sketch:type="MSArtboardGroup" transform="translate(-520.000000, -2178.000000)" fill="#00AB84">
            <g id="Grat-Widge-Coming-Soon" sketch:type="MSLayerGroup" transform="translate(478.000000, 75.000000)">
                <g id="Footer" transform="translate(1.000000, 2061.000000)" sketch:type="MSShapeGroup">
                    <path d="M68,46 C71.188,46 74,48.691 74,52 C74,56.945 66.444,66.24 59.915,72.605 C53.7,66.867 46.001,57.837 46.001,52 C46.001,48.691 48.692,46 52.001,46 C55.001,46 57.875,49.017 60,52.69 C62.063,49.08 64.813,46 68,46 M68,42 C64.724,42 61.824,43.583 60,46.018 C58.177,43.583 55.277,42 52.001,42 C46.478,42 42,46.477 42,52 C42,63.08 60,78 60,78 C60,78 78,61.955 78,52 C78,46.477 73.523,42 68,42" id="Imported-Layers"></path>
                </g>
            </g>
        </g>
    </g>
</svg>