<?xml version="1.0" encoding="UTF-8" standalone="no"?>
<svg width="18px" height="17px" viewBox="0 0 18 17" version="1.1" xmlns="http://www.w3.org/2000/svg" xmlns:xlink="http://www.w3.org/1999/xlink" xmlns:sketch="http://www.bohemiancoding.com/sketch/ns">
    <!-- Generator: Sketch 3.2.2 (9983) - http://www.bohemiancoding.com/sketch -->
    <title>Imported Layers</title>
    <desc>Created with Sketch.</desc>
    <defs></defs>
    <g id="Page-1" stroke="none" stroke-width="1" fill="none" fill-rule="evenodd" sketch:type="MSPage">
        <g id="Grat-Widge-Scrolled" sketch:type="MSArtboardGroup" transform="translate(-530.000000, -177.000000)" fill="#00AB84">
            <g id="Widget" sketch:type="MSLayerGroup" transform="translate(479.000000, 75.000000)">
                <g id="#CONNECTEDBYGRATITUD-+-Imported-Layers" transform="translate(51.000000, 100.000000)" sketch:type="MSShapeGroup">
                    <path d="M2.22768,2 L15.12216,2 C16.34688,2 17.3484,2.96369231 17.3484,4.14130769 L17.3484,16.5398462 C17.3484,17.7174615 16.34688,18.6797692 15.12216,18.6797692 L2.22768,18.6797692 C1.00296,18.6797692 0,17.7174615 0,16.5398462 L0,4.14130769 C0,2.96369231 1.00296,2 2.22768,2 L2.22768,2 Z M12.63816,3.85261538 C12.2076,3.85261538 11.85696,4.19184615 11.85696,4.60515385 L11.85696,6.40169231 C11.85696,6.815 12.2076,7.15284615 12.63816,7.15284615 L14.59872,7.15284615 C15.02856,7.15284615 15.37992,6.815 15.37992,6.40169231 L15.37992,4.60515385 C15.37992,4.19184615 15.02856,3.85261538 14.59872,3.85261538 L12.63816,3.85261538 L12.63816,3.85261538 Z M15.38712,9.05392308 L13.86072,9.05392308 C14.00544,9.50876923 14.08392,9.98784615 14.08392,10.4863077 C14.08392,13.2596923 11.66904,15.5096923 8.6904,15.5096923 C5.7132,15.5096923 3.29832,13.2596923 3.29832,10.4863077 C3.29832,9.98784615 3.37752,9.50876923 3.52152,9.05392308 L1.92888,9.05392308 L1.92888,16.1009231 C1.92888,16.4657692 2.23848,16.7620769 2.61792,16.7620769 L14.69808,16.7620769 C15.07824,16.7620769 15.38712,16.4657692 15.38712,16.1009231 L15.38712,9.05392308 L15.38712,9.05392308 Z M8.6904,7.058 C6.76728,7.058 5.20704,8.51115385 5.20704,10.3049231 C5.20704,12.0966154 6.76728,13.5504615 8.6904,13.5504615 C10.61496,13.5504615 12.1752,12.0966154 12.1752,10.3049231 C12.1752,8.51115385 10.61496,7.058 8.6904,7.058 L8.6904,7.058 Z" id="Imported-Layers"></path>
                </g>
            </g>
        </g>
    </g>
</svg>