<?xml version="1.0" encoding="UTF-8" standalone="no"?>
<svg width="18px" height="18px" viewBox="0 0 18 18" version="1.1" xmlns="http://www.w3.org/2000/svg" xmlns:xlink="http://www.w3.org/1999/xlink" xmlns:sketch="http://www.bohemiancoding.com/sketch/ns">
    <!-- Generator: Sketch 3.2.2 (9983) - http://www.bohemiancoding.com/sketch -->
    <title>Imported Layers</title>
    <desc>Created with Sketch.</desc>
    <defs></defs>
    <g id="Page-1" stroke="none" stroke-width="1" fill="none" fill-rule="evenodd" sketch:type="MSPage">
        <g id="Buttons" sketch:type="MSArtboardGroup" transform="translate(-244.000000, -297.000000)" fill="#FFFFFF">
            <g id="Dark" sketch:type="MSLayerGroup" transform="translate(229.000000, 84.000000)">
                <g id="Grat-Heart-Dark" transform="translate(0.000000, 198.000000)" sketch:type="MSShapeGroup">
                    <path d="M27.6486486,16.9459459 C29.1995676,16.9459459 30.5675676,18.2550811 30.5675676,19.8648649 C30.5675676,22.2705405 26.8916757,26.7924324 23.7154054,29.8889189 C20.6918919,27.0974595 16.9464324,22.7044865 16.9464324,19.8648649 C16.9464324,18.2550811 18.2555676,16.9459459 19.8653514,16.9459459 C21.3248108,16.9459459 22.722973,18.4136757 23.7567568,20.2005405 C24.7603784,18.4443243 26.0982162,16.9459459 27.6486486,16.9459459 M27.6486486,15 C26.0549189,15 24.6441081,15.7701081 23.7567568,16.9547027 C22.8698919,15.7701081 21.4590811,15 19.8653514,15 C17.1784865,15 15,17.178 15,19.8648649 C15,25.2551351 23.7567568,32.5135135 23.7567568,32.5135135 C23.7567568,32.5135135 32.5135135,24.7078378 32.5135135,19.8648649 C32.5135135,17.178 30.3355135,15 27.6486486,15" id="Imported-Layers"></path>
                </g>
            </g>
        </g>
    </g>
</svg>